<?xml version="1.0" encoding="UTF-8" standalone="no"?>
<svg
   viewBox="0 0 500 500"
   version="1.1"
   id="svg65"
   sodipodi:docname="cog.svg"
   inkscape:version="1.2.2 (b0a8486541, 2022-12-01)"
   xmlns:inkscape="http://www.inkscape.org/namespaces/inkscape"
   xmlns:sodipodi="http://sodipodi.sourceforge.net/DTD/sodipodi-0.dtd"
   xmlns="http://www.w3.org/2000/svg"
   xmlns:svg="http://www.w3.org/2000/svg"
   xmlns:bx="https://boxy-svg.com">
  <sodipodi:namedview
     id="namedview16"
     pagecolor="#ffffff"
     bordercolor="#000000"
     borderopacity="0.25"
     inkscape:showpageshadow="2"
     inkscape:pageopacity="0.0"
     inkscape:pagecheckerboard="0"
     inkscape:deskcolor="#d1d1d1"
     showgrid="false"
     inkscape:zoom="2.006"
     inkscape:cx="249.75075"
     inkscape:cy="250"
     inkscape:window-width="2560"
     inkscape:window-height="1411"
     inkscape:window-x="1920"
     inkscape:window-y="1080"
     inkscape:window-maximized="1"
     inkscape:current-layer="svg65" />
  <defs
     id="defs21">
    <linearGradient
       id="gradient-2"
       bx:pinned="true">
      <stop
         offset="0.114"
         style="stop-color: rgb(70, 70, 70);"
         id="stop2" />
      <stop
         offset="0.217"
         style="stop-color: rgb(132, 130, 130);"
         id="stop4" />
      <stop
         offset="0.353"
         style="stop-color: rgb(142, 130, 130);"
         id="stop6" />
      <stop
         offset="0.456"
         style="stop-color: rgb(218, 218, 218);"
         id="stop8" />
      <stop
         offset="0.69"
         style="stop-color: rgb(222, 222, 222);"
         id="stop10" />
      <stop
         offset="0.712"
         style="stop-color: rgb(137, 137, 137);"
         id="stop12" />
      <stop
         offset="0.837"
         style="stop-color: rgb(146, 132, 132);"
         id="stop14" />
      <stop
         offset="0.935"
         style="stop-color: rgb(100, 100, 100);"
         id="stop16" />
      <stop
         offset="1"
         style="stop-color: rgb(93, 93, 93);"
         id="stop18" />
    </linearGradient>
    <bx:export>
      <bx:file
         format="png" />
    </bx:export>
  </defs>
  <path
     style="transform-box: fill-box; transform-origin: 50% 50%; fill: rgb(147, 147, 147);"
     transform="matrix(-0.698507, 1.028738, -1.028738, -0.698507, -221.999985, 1.400524)"
     d="M 461.213 60.11 L 482.787 60.11 L 489.996 83.481 A 166.494 166.494 0 0 1 508.722 86.606 L 523.13 66.842 L 543.535 73.847 L 542.765 98.293 A 166.494 166.494 0 0 1 559.462 107.329 L 579.506 93.314 L 596.531 106.565 L 587.865 129.436 A 166.494 166.494 0 0 1 600.724 143.404 L 624.233 136.657 L 636.032 154.717 L 620.41 173.536 A 166.494 166.494 0 0 1 628.036 190.922 L 652.462 192.173 L 657.758 213.087 L 636.872 225.813 A 166.494 166.494 0 0 1 638.439 244.733 L 661.136 253.848 L 659.354 275.348 L 635.467 280.603 A 166.494 166.494 0 0 1 630.807 299.007 L 649.313 314.998 L 640.647 334.755 L 616.348 331.969 A 166.494 166.494 0 0 1 605.965 347.862 L 618.277 368.996 L 603.665 384.868 L 581.587 374.343 A 166.494 166.494 0 0 1 566.606 386.004 L 571.388 409.99 L 552.415 420.258 L 534.951 403.135 A 166.494 166.494 0 0 1 516.994 409.299 L 513.73 433.538 L 492.451 437.089 L 481.492 415.223 A 166.494 166.494 0 0 1 462.508 415.223 L 451.549 437.089 L 430.27 433.538 L 427.006 409.299 A 166.494 166.494 0 0 1 409.049 403.135 L 391.585 420.258 L 372.612 409.99 L 377.394 386.004 A 166.494 166.494 0 0 1 362.413 374.343 L 340.335 384.868 L 325.723 368.996 L 338.035 347.862 A 166.494 166.494 0 0 1 327.652 331.969 L 303.353 334.755 L 294.687 314.998 L 313.193 299.007 A 166.494 166.494 0 0 1 308.533 280.603 L 284.646 275.348 L 282.864 253.848 L 305.561 244.733 A 166.494 166.494 0 0 1 307.128 225.813 L 286.242 213.087 L 291.538 192.173 L 315.964 190.922 A 166.494 166.494 0 0 1 323.59 173.536 L 307.968 154.717 L 319.767 136.657 L 343.276 143.404 A 166.494 166.494 0 0 1 356.135 129.436 L 347.469 106.565 L 364.494 93.314 L 384.538 107.329 A 166.494 166.494 0 0 1 401.235 98.293 L 400.465 73.847 L 420.87 66.842 L 435.278 86.606 A 166.494 166.494 0 0 1 454.004 83.481 Z M 472 120.103 A 128.897 128.897 0 0 0 472 377.897 A 128.897 128.897 0 0 0 472 120.103"
     bx:shape="cog 472 249 128.897 166.494 188.89 0.31 19 1@ef9977d0"
     id="path13" />
  <path
     style="fill:#939393;stroke-width:1.24347"
     d="m 451.74609,370.45327 -15.06959,22.19399 -29.07818,-8.90863 a 207.03006,207.03006 0 0 1 -16.29505,17.08131 l 10.26789,28.62735 -21.45935,16.09836 -24.61068,-17.86783 a 207.03006,207.03006 0 0 1 -20.95865,10.86512 l 0.41689,30.40961 -25.52389,8.25834 -17.47501,-24.8906 a 207.03006,207.03006 0 0 1 -23.35151,3.4718 l -9.48031,28.89743 -26.8207,-0.47696 -8.44774,-29.21615 a 207.03006,207.03006 0 0 1 -23.21245,-4.29909 l -18.34869,24.25412 -25.21432,-9.16038 1.4973,-30.37542 A 207.03006,207.03006 0 0 1 138.02377,423.81191 L 112.7928,440.79429 91.919688,423.94317 103.1989,395.69905 A 207.03006,207.03006 0 0 1 87.521058,378.04981 l -29.37713,7.868 -14.27151,-22.71545 19.839089,-23.05127 a 207.03006,207.03006 0 0 1 -9.097089,-21.78276 l -30.3414,-2.09642 -6.1216,-26.11863 26.2491,-15.36069 a 207.03006,207.03006 0 0 1 -1.5317,-23.55682 l -28.0156,-11.83496 2.6897,-26.69052 29.8138,-6.00534 a 207.03006,207.03006 0 0 1 6.202,-22.77865 l -22.6557,-20.28892 11.2105,-24.37091 30.149309,3.99962 A 207.03006,207.03006 0 0 1 85.523288,123.73652 L 70.683837,97.189028 89.200418,77.778909 116.41592,91.352218 a 207.03006,207.03006 0 0 1 18.88424,-14.167449 l -5.41636,-29.92642 23.81586,-12.345972 21.33505,21.673812 a 207.03006,207.03006 0 0 1 22.46045,-7.26623 l 4.59417,-30.064263 26.53472,-3.945215 13.14133,27.428068 a 207.03006,207.03006 0 0 1 23.60233,0.41999 l 14.10696,-26.943345 26.37804,4.885362 3.52398,30.207653 a 207.03006,207.03006 0 0 1 22.18794,8.06141 l 22.09125,-20.90281 23.36261,13.18469 -6.47707,29.71616 a 207.03006,207.03006 0 0 1 18.36917,14.827779 l 27.68074,-12.59702 17.81573,20.056782 -15.77479,26.00179 a 207.03006,207.03006 0 0 1 12.55883,19.9894 l 30.2719,-2.92574 10.33732,24.75312 -23.3621,19.47177 a 207.03006,207.03006 0 0 1 5.38731,22.98529 l 29.58153,7.06051 1.73972,26.77019 -28.41864,10.83044 a 207.03006,207.03006 0 0 1 -2.36729,23.48855 l 25.68638,16.28358 -7.04673,25.88444 -30.39607,1.01676 a 207.03006,207.03006 0 0 1 -9.86544,21.44699 z M 382.49421,339.64473 A 160.27937,160.27937 0 0 0 117.29172,159.57378 160.27937,160.27937 0 0 0 382.49421,339.64473"
     bx:shape="cog 472 249 128.897 166.494 188.89 0.31 19 1@ef9977d0"
     id="path68" />
</svg>
