<?xml version="1.0" encoding="UTF-8" standalone="no"?>
<svg
   viewBox="0 0 500 500"
   version="1.1"
   id="svg65"
   sodipodi:docname="part2.svg"
   inkscape:version="1.2.2 (b0a8486541, 2022-12-01)"
   xmlns:inkscape="http://www.inkscape.org/namespaces/inkscape"
   xmlns:sodipodi="http://sodipodi.sourceforge.net/DTD/sodipodi-0.dtd"
   xmlns="http://www.w3.org/2000/svg"
   xmlns:svg="http://www.w3.org/2000/svg"
   xmlns:bx="https://boxy-svg.com">
  <sodipodi:namedview
     id="namedview23"
     pagecolor="#ffffff"
     bordercolor="#000000"
     borderopacity="0.25"
     inkscape:showpageshadow="2"
     inkscape:pageopacity="0.0"
     inkscape:pagecheckerboard="0"
     inkscape:deskcolor="#d1d1d1"
     showgrid="false"
     inkscape:zoom="0.5015"
     inkscape:cx="-801.59521"
     inkscape:cy="324.02792"
     inkscape:window-width="1920"
     inkscape:window-height="1011"
     inkscape:window-x="0"
     inkscape:window-y="1120"
     inkscape:window-maximized="1"
     inkscape:current-layer="svg65" />
  <defs
     id="defs21">
    <linearGradient
       id="gradient-2"
       bx:pinned="true">
      <stop
         offset="0"
         style="stop-color: rgb(45, 45, 45);"
         id="stop2" />
      <stop
         offset="0.495"
         style="stop-color: rgb(144, 144, 144);"
         id="stop3" />
      <stop
         offset="1"
         style="stop-color: rgb(46, 46, 46);"
         id="stop5" />
    </linearGradient>
    <bx:export>
      <bx:file
         format="png" />
    </bx:export>
  </defs>
  <path
     style="fill:#00ff20;stroke-width:1.24347"
     d="m 451.85311,370.84399 -15.06959,22.19399 -36.50999,-15.22936 a 197.27503,197.27503 0 0 1 -15.52672,16.27735 l 16.93138,35.75204 -21.45935,16.09836 -29.58692,-26.25774 a 197.27503,197.27503 0 0 1 -19.97068,10.35307 l 4.40517,39.31157 -25.52389,8.25835 -19.45777,-34.44187 a 197.27503,197.27503 0 0 1 -22.24958,3.30767 l -8.59948,38.61282 -26.82069,-0.47695 -7.22128,-38.89401 a 197.27503,197.27503 0 0 1 -22.11812,-4.09563 l -20.66948,33.72852 -25.21432,-9.16038 5.79959,-39.13115 A 197.27503,197.27503 0 0 1 143.40174,415.99489 L 112.89986,441.18503 92.026735,424.33392 110.21765,389.20653 A 197.27503,197.27503 0 0 1 95.278735,372.38819 l -37.02776,13.92037 -14.27151,-22.71545 28.612,-27.31655 a 197.27503,197.27503 0 0 1 -8.66851,-20.75825 l -39.54291,1.14435 -6.12154,-26.11862 35.93122,-16.54668 a 197.27503,197.27503 0 0 1 -1.45842,-22.44738 l -37.77105,-11.75841 2.68969,-26.69052 39.35731,-3.98332 a 197.27503,197.27503 0 0 1 5.90934,-21.70577 l -31.90654,-23.38381 11.21048,-24.37091 38.51863,9.01047 a 197.27503,197.27503 0 0 1 12.63599,-18.60987 L 70.790865,97.579799 89.307445,78.169681 122.81218,99.199739 a 197.27503,197.27503 0 0 1 17.99496,-13.499708 l -10.81631,-38.05091 23.81586,-12.34598 24.86264,30.76949 a 197.27503,197.27503 0 0 1 21.40218,-6.92515 l 2.12483,-39.50102 26.53472,-3.94522 13.52352,37.17614 a 197.27503,197.27503 0 0 1 22.49196,0.39953 l 14.83514,-36.67096 26.37804,4.88536 0.72075,39.55138 a 197.27503,197.27503 0 0 1 21.14306,7.68109 l 25.93937,-29.86622 23.36259,13.18469 -12.16152,37.64312 a 197.27503,197.27503 0 0 1 17.50252,14.129619 l 34.23185,-19.825819 17.81573,20.056769 -23.72483,31.65395 a 197.27503,197.27503 0 0 1 11.96602,19.04731 l 38.81475,-7.63582 10.33732,24.75312 -32.71722,22.23703 a 197.27503,197.27503 0 0 1 5.13337,21.90052 l 39.19059,5.38002 1.73973,26.77018 -38.16402,10.40735 a 197.27503,197.27503 0 0 1 -2.25581,22.38136 l 35.32027,17.81386 -7.04673,25.88444 -39.47638,-2.54849 a 197.27503,197.27503 0 0 1 -9.40161,20.43626 z m -0.77803,15.68479 A 243.04587,243.04587 0 0 0 48.924925,113.47122 243.04587,243.04587 0 0 0 451.07508,386.52878"
     bx:shape="cog 472 249 195.458 158.649 188.89 0.31 19 1@a7380a4d"
     id="path27" />
</svg>
