<?xml version="1.0" encoding="utf-8"?>
<svg viewBox="0 0 500 500" version="1.1" id="svg65" xmlns="http://www.w3.org/2000/svg" xmlns:bx="https://boxy-svg.com">
  <defs id="defs21">
    <linearGradient id="gradient-2" bx:pinned="true">
      <stop offset="0" style="stop-color: rgb(45, 45, 45);" id="stop2"/>
      <stop offset="0.495" style="stop-color: rgb(144, 144, 144);"/>
      <stop offset="1" style="stop-color: rgb(46, 46, 46);"/>
    </linearGradient>
    <bx:export>
      <bx:file format="png"/>
    </bx:export>
  </defs>
  <path style="stroke-width: 1.24347; fill: rgb(138, 138, 138);" d="M 446.153 383.183 C 548.662 232.174 449.258 26.828 267.225 13.558 C 182.763 7.398 101.429 46.758 53.849 116.808 C -48.666 267.821 50.743 473.171 232.776 486.442 C 317.238 492.6 398.573 453.241 446.153 383.183" id="cog-1"/>
  <path style="fill:#00ff20;stroke-width:1.24347" d="m 454.12386,379.49657 -15.06959,22.19399 -36.50999,-15.22936 a 197.27503,197.27503 0 0 1 -15.52672,16.27735 l 16.93138,35.75204 -21.45935,16.09836 -29.58692,-26.25774 a 197.27503,197.27503 0 0 1 -19.97068,10.35307 l 4.40517,39.31157 -25.52389,8.25835 -19.45777,-34.44187 A 197.27503,197.27503 0 0 1 270.10592,455.12 l -8.59948,38.61282 -26.82069,-0.47695 -7.22128,-38.89401 a 197.27503,197.27503 0 0 1 -22.11812,-4.09563 l -20.66948,33.72852 -25.21432,-9.16038 5.79959,-39.13115 A 197.27503,197.27503 0 0 1 145.67248,424.64747 L 115.1706,449.83761 94.297477,432.9865 112.48839,397.85911 A 197.27503,197.27503 0 0 1 97.549477,381.04077 l -37.02776,13.92037 -14.27151,-22.71545 28.612,-27.31655 a 197.27503,197.27503 0 0 1 -8.66851,-20.75825 l -39.54291,1.14435 -6.12154,-26.11862 35.93122,-16.54668 a 197.27503,197.27503 0 0 1 -1.45842,-22.44738 l -37.77105,-11.75841 2.68969,-26.69052 39.35731,-3.98332 a 197.27503,197.27503 0 0 1 5.90934,-21.70577 l -31.90654,-23.38381 11.21048,-24.37091 38.51863,9.01047 a 197.27503,197.27503 0 0 1 12.63599,-18.60987 l -22.58429,-32.47804 18.51658,-19.410118 33.504733,21.030058 a 197.27503,197.27503 0 0 1 17.99496,-13.499708 l -10.81631,-38.05091 23.81586,-12.34598 24.86264,30.76949 a 197.27503,197.27503 0 0 1 21.40219,-6.92515 l 2.12483,-39.50102 26.53472,-3.94522 13.52352,37.17614 a 197.27503,197.27503 0 0 1 22.49196,0.39953 l 14.83514,-36.67096 26.37804,4.88536 0.72075,39.55138 a 197.27503,197.27503 0 0 1 21.14305,7.68109 l 25.93937,-29.86622 23.3626,13.18469 -12.16153,37.64312 a 197.27503,197.27503 0 0 1 17.50252,14.129618 l 34.23185,-19.825818 17.81573,20.056768 -23.72483,31.65395 a 197.27503,197.27503 0 0 1 11.96602,19.04731 l 38.81475,-7.63582 10.33732,24.75312 -32.71721,22.23703 a 197.27503,197.27503 0 0 1 5.13337,21.90052 l 39.19058,5.38002 1.73973,26.77018 -38.16401,10.40735 a 197.27503,197.27503 0 0 1 -2.25581,22.38136 l 35.32027,17.81386 -7.04673,25.88444 -39.47638,-2.54849 a 197.27503,197.27503 0 0 1 -9.40161,20.43626 z m -0.77804,15.68479 A 243.04587,243.04587 0 0 0 51.195667,122.1238 243.04587,243.04587 0 0 0 453.34582,395.18136" bx:shape="cog 472 249 195.458 158.649 188.89 0.31 19 1@a7380a4d" id="path27" transform="matrix(1, 0, 0, 1, -2.27073, -8.652575)"/>
  <ellipse cx="250" cy="250" rx="176" ry="172.892" id="ellipse-1"/>
  <g transform="matrix(0.980807, 0, 0, 0.980807, -539.977539, 568.357544)" id="g40">
    <g transform="translate(-553.52386,-308.65643)" id="g38">
      <path d="m 1397.79,129.441 c 112.46,-30.136 150.13,-170.72 67.8,-253.051 -38.21,-38.21 -93.91,-53.13 -146.1,-39.15 -112.47,30.14 -150.13,170.722 -67.8,253.052 38.21,38.211 93.9,53.134 146.1,39.149 z" style="fill:#ff0000" id="path-29"/>
      <path d="m 1385.7,120.934 c 68.18,-14.918 135.44,-93.547 90.05,-192.77 -18.63,-40.694 -60.14,-75.004 -82.87,-92.164 27.33,6.23 52.85,20.02 73.35,40.52 82.33,82.332 44.67,224.24 -67.8,254.376 -45.07,12.073 -92.73,2.601 -129.51,-24.798 34.3,14.806 72.45,24.538 116.78,14.836 z" style="fill:#c20000" id="path-30"/>
      <path d="m 1407.84,-29.637 c 11.89,-5.984 21.28,-9.257 20.76,-53.945 8.38,5.05 16.06,34.75 15.45,47.565 -0.74,16.017 -11.53,34.179 -26.8,36.631 -15.27,2.452 -34.25,-17.235 -29.2,-36.708 2.49,1.971 12.14,10.312 19.79,6.457 z m -86.12,-6.457 c 5.04,19.473 -13.92,39.16 -29.2,36.708 -15.27,-2.453 -26.07,-20.614 -26.81,-36.631 -0.59,-12.815 7.09,-42.515 15.45,-47.565 -0.5,44.688 8.88,47.961 20.76,53.945 7.67,3.855 17.31,-4.487 19.8,-6.457 z" id="path-31"/>
      <path d="m 1420.01,-14.901 c 0,2.4 -1.95,4.346 -4.34,4.346 -2.4,0 -4.35,-1.946 -4.35,-4.346 0,-2.401 1.95,-4.347 4.35,-4.347 2.39,0 4.34,1.946 4.34,4.347 z m -121.56,0 c 0,2.4 -1.94,4.346 -4.34,4.346 -2.41,0 -4.35,-1.946 -4.35,-4.346 0,-2.401 1.94,-4.347 4.35,-4.347 2.4,0 4.34,1.946 4.34,4.347 z" style="fill:#d8d8d8;stroke:#000000" id="path-32"/>
      <path style="fill:#910a0a" d="m 1405.86,-40.541 c 10.55,-3.511 21.52,-23.368 21.07,-49.579 7.43,2.961 0.99,34.18 0.47,41.696 -0.67,9.395 -7.59,18.665 -21.15,20.106 -13.56,1.437 -22.44,-5.915 -17.96,-17.336 2.21,1.157 10.77,7.371 17.57,5.113 z m -84.38,-5.113 c 4.47,11.421 -4.41,18.773 -17.97,17.336 -13.55,-1.441 -20.48,-10.711 -21.14,-20.106 -0.53,-7.516 -6.95,-38.735 0.48,-41.696 -0.45,26.211 10.52,46.068 21.06,49.579 6.8,2.258 15.36,-3.958 17.57,-5.113 z" id="path-33"/>
      <path d="m 1354.63,112.799 c -64.09,0 -117.7,-45.656 -131.11,-106.737 36.67,18.403 82.02,29.284 131.11,29.284 49.1,0 94.46,-10.881 131.12,-29.284 -13.4,61.081 -67.02,106.737 -131.12,106.737 z" id="path-25"/>
      <path d="m 1354.67,107.657 c -7.63,0 -13.8,-0.665 -21.07,-1.941 l 2.31,-34.959 c 6.19,0.513 11.24,0.764 17.75,0.685 7.07,-0.084 12.79,-0.602 19.72,-1.457 l 2.35,35.731 c -7.27,1.276 -13.42,1.941 -21.06,1.941 z M 1243.03,42.993 c 6.49,3.525 14.26,8.013 25.4,12.377 l -4.27,16.365 c -8.78,-8.44 -15.02,-18.113 -21.13,-28.742 z m 224.82,-2.764 c -6.35,11.718 -13.14,22.34 -22.68,31.506 l -4.84,-18.632 c 12.13,-4.725 20.76,-9.44 27.52,-12.874 z M 1268.7,51.637 c -11.29,-4.371 -19.44,-8.779 -26.14,-12.12 -5.13,-9.079 -9.18,-16.195 -12,-26.472 13.49,6.755 27.62,12.42 44.53,16.732 z m 199.43,-14.561 c -6.82,3.355 -15.63,8.036 -27.96,12.766 l -5.92,-20.065 c 16.92,-4.312 31.05,-9.977 44.53,-16.732 -2.56,9.362 -6.16,15.651 -10.65,24.031 z m -114.48,31.545 c -6.34,0.154 -11.4,-0.119 -17.73,-0.729 l 2.09,-29.162 c 5.92,0.309 10.6,0.467 16.66,0.467 6.06,0 10.75,-0.158 16.65,-0.467 l 2.03,28.185 c -6.94,0.933 -12.66,1.535 -19.7,1.706 z m -22.79,36.838 c -12.35,-2.312 -22.77,-6.391 -33.61,-11.966 l 4.7,-28.318 c 10.09,2.466 19.67,4.419 31.2,5.457 z M 1294.6,92.805 c -10.21,-5.402 -19.61,-12.138 -27.96,-19.978 l 4.41,-16.95 c 8.36,3.224 17.83,6.356 28.2,8.956 z m 81.53,-23.002 c 11.19,-1.459 20.73,-3.783 30.94,-6.557 l 5.02,30.247 c -10.85,5.574 -21.25,9.654 -33.62,11.966 z m 33.64,-6.934 c 10.09,-2.798 19.5,-6.022 27.94,-9.262 l 4.99,19.22 c -8.36,7.84 -17.74,14.576 -27.96,19.978 z m -110.38,-1.56 c -10.07,-2.712 -19.55,-5.92 -28.05,-9.17 l 6.42,-22.021 c 8.45,2.11 17.26,3.883 26.37,5.286 z m 33.78,6.44 c -11.11,-1.163 -20.72,-3.349 -31.08,-6.075 l 4.77,-26.058 c 9.61,1.435 18.22,2.46 28.4,3.036 z m 73.79,-7.808 c -10.23,2.816 -19.76,5.213 -30.86,6.778 l -2.02,-28.067 c 10.18,-0.576 18.8,-1.601 28.4,-3.036 z m 30.58,-9.601 c -8.44,3.201 -17.85,6.407 -27.89,9.22 l -4.45,-24.156 c 9.11,-1.403 17.93,-3.176 26.39,-5.286 z" style="fill:#ffffff;stroke-width:4px" id="path-34"/>
      <path d="m 1354.67,107.657 c -7.63,0 -13.8,-0.665 -21.06,-1.941 l 0.97,-14.801 c 6.54,0.724 13.25,1.101 20.09,1.101 6.84,0 13.55,-0.377 20.09,-1.101 l 0.97,14.801 c -7.27,1.276 -13.42,1.941 -21.06,1.941 z m -90.51,-35.922 c -6.5,-6.256 -11.62,-13.191 -16.32,-20.689 5.05,5.593 11,10.761 17.7,15.407 z m 181.01,0 -1.37,-5.284 c 6.85,-4.746 12.9,-10.037 18.02,-15.769 -4.74,7.638 -10.03,14.696 -16.65,21.053 z m -214.61,-58.69 c 13.49,6.755 27.62,12.42 44.53,16.733 l -3.39,11.598 c -15.79,-5.308 -28.9,-12.095 -38.31,-19.895 -1.05,-2.623 -1.99,-5.391 -2.83,-8.436 z m 203.69,16.733 c 16.92,-4.313 31.05,-9.978 44.53,-16.733 -0.85,3.1 -1.81,5.863 -2.88,8.477 -9.4,7.777 -22.49,14.545 -38.23,19.843 z m -96.24,8.952 c 5.92,0.309 10.6,0.468 16.66,0.468 6.06,0 10.75,-0.159 16.66,-0.468 l 1.04,14.5 c -5.8,0.331 -11.7,0.501 -17.7,0.501 -6,0 -11.9,-0.17 -17.7,-0.5 z m -7.14,66.729 c -12.36,-2.311 -22.78,-6.391 -33.62,-11.966 l 1.73,-10.43 c 10.24,3.498 21.28,6.06 32.86,7.527 z M 1294.6,92.805 c -10.21,-5.402 -19.61,-12.138 -27.96,-19.977 l 1.24,-4.791 c 8.46,5.568 18.05,10.331 28.49,14.109 z m 117.49,0.688 c -10.84,5.574 -21.25,9.655 -33.62,11.966 l -0.97,-14.87 c 11.58,-1.466 22.62,-4.029 32.86,-7.526 z m 30.61,-20.665 c -8.35,7.839 -17.74,14.575 -27.96,19.977 l -1.77,-10.66 c 10.44,-3.779 20.03,-8.541 28.48,-14.109 z m -164.94,-42.71 c 8.45,2.11 17.27,3.883 26.37,5.286 l -2.49,13.625 c -9.76,-1.812 -18.94,-4.108 -27.41,-6.82 z m 29.1,5.498 c 9.61,1.435 18.22,2.46 28.4,3.036 l -1.04,14.409 c -10.39,-0.687 -20.4,-1.891 -29.9,-3.55 z m 67.22,3.036 c 10.18,-0.576 18.8,-1.601 28.4,-3.036 l 2.56,13.891 c -9.5,1.661 -19.52,2.866 -29.92,3.554 z m 31.12,-3.248 c 9.11,-1.403 17.93,-3.176 26.39,-5.286 l 3.55,12.078 c -8.47,2.717 -17.66,5.016 -27.43,6.83 z" style="fill:#dbdbdb;stroke-width:4px" id="path-35"/>
    </g>
  </g>
</svg>